<?xml version="1.0" encoding="UTF-8" standalone="no"?>
<!-- Created with Inkscape (http://www.inkscape.org/) -->
<svg id="svg2" xmlns:rdf="http://www.w3.org/1999/02/22-rdf-syntax-ns#" xmlns="http://www.w3.org/2000/svg" height="227.86mm" width="429.27mm" version="1.1" xmlns:cc="http://creativecommons.org/ns#" xmlns:dc="http://purl.org/dc/elements/1.1/" viewBox="0 0 1521.0331 807.39244">
 <metadata id="metadata7">
  <rdf:RDF>
   <cc:Work rdf:about="">
    <dc:format>image/svg+xml</dc:format>
    <dc:type rdf:resource="http://purl.org/dc/dcmitype/StillImage"/>
    <dc:title/>
   </cc:Work>
  </rdf:RDF>
 </metadata>
 <g id="layer1" transform="translate(821.15 126.53)">
  <g id="g4229">
   <path id="path4148" transform="matrix(1.1218 0 0 1.1318 1257.1 -59.782)" fill="#ff2a2a" d="m-908.84 419.6c27.039 16.281-131.03-269.51-131.61-237.95-0.5804 31.557 167.89-248.23 140.27-232.95-27.619 15.276 298.92 21.282 271.88 5.0007-27.039-16.281 131.03 269.51 131.61 237.95 0.58043-31.557-167.89 248.23-140.27 232.95 27.619-15.276-298.92-21.282-271.88-5.0007z"/>
   <path id="path4150" d="m-961.07 521.21c38.833 22.344-193.55-378.79-193.49-333.99 0.066 44.802 231.27-357.02 192.5-334.56-38.767 22.458 424.82 21.775 385.99-0.56906-38.833-22.344 193.55 378.79 193.49 333.99-0.0661-44.802-231.27 357.02-192.5 334.56 38.767-22.458-424.82-21.775-385.99 0.56907z" transform="matrix(-.79018 0 0 -.80486 -1123.5 293.69)" fill="#f60"/>
   <path id="path4215" transform="matrix(-1.0344 0 0 -1.0509 -857.53 607.01)" fill="#008080" d="m-917.52 441.14c29.539 17.288-145.72-290.46-145.92-256.23-0.2026 34.225 178.69-271.43 148.95-254.49-29.741 16.937 324.41 19.034 294.87 1.7459-29.539-17.288 145.72 290.46 145.92 256.23 0.20265-34.225-178.69 271.43-148.95 254.49 29.741-16.937-324.41-19.034-294.87-1.7459z"/>
   <g font-size="500px" font-family="sans-serif" fill="#000000">
    <text id="text4217" style="word-spacing:0px;letter-spacing:0px" line-height="125%" y="322.42096" x="-681.19226" xml:space="preserve"><tspan id="tspan4219" font-size="500px" y="322.42096" x="-681.19226" font-family="&apos;Arial Unicode MS&apos;">S</tspan></text>
    <text id="text4221" style="word-spacing:0px;letter-spacing:0px" xml:space="preserve" y="578.82709" x="-260.54163" line-height="125%"><tspan id="tspan4223" font-size="500px" y="578.82709" x="-260.54163" font-family="&apos;Arial Unicode MS&apos;">Q</tspan></text>
    <text id="text4225" style="word-spacing:0px;letter-spacing:0px" line-height="125%" y="330.42096" x="245.34384" xml:space="preserve"><tspan id="tspan4227" font-size="500px" y="330.42096" x="245.34384" font-family="&apos;Arial Unicode MS&apos;">L</tspan></text>
   </g>
  </g>
 </g>
</svg>
